<?xml version="1.0" encoding="UTF-8"?> <svg xmlns="http://www.w3.org/2000/svg" width="200" height="200" version="1.1" viewBox="0 0 200 200"><defs><style> .cls-1 { fill: none; } .cls-2 { fill: #792625; } .cls-3 { fill: #bc3431; } .cls-4 { fill: #fff; } .cls-5 { fill: #a9312f; } </style></defs><g><g id="Layer_1"><path class="cls-3" d="M187.1802,100c0,6.4402-6.6486,12.0466-8.0183,18.0722-1.4142,6.2218,2.1097,14.1502-.5985,19.7635-2.7528,5.7058-11.1766,7.8782-15.0901,12.7792-3.9326,4.9249-4.1901,13.6149-9.1151,17.5475-4.9011,3.9135-13.4244,2.2446-19.1302,4.9973-5.6132,2.708-9.6044,10.4388-15.8261,11.853-6.0255,1.3696-12.9617-3.8326-19.4019-3.8326s-13.3765,5.2022-19.4022,3.8325c-6.2218-1.4142-10.2131-9.1451-15.8265-11.8532-5.7058-2.7528-14.2292-1.084-19.1303-4.9976-4.9249-3.9326-5.1824-12.6226-9.1149-17.5476-3.9135-4.9011-12.3373-7.0734-15.09-12.7793-2.708-5.6132.816-13.5414-.5982-19.763-1.3696-6.0255-8.0182-11.6318-8.0182-18.072s6.6486-12.0466,8.0183-18.0722c1.4142-6.2218-2.1097-14.1502.5985-19.7635,2.7528-5.7058,11.1766-7.8782,15.0901-12.7792,3.9326-4.9249,4.1901-13.6149,9.1151-17.5475,4.9011-3.9135,13.4244-2.2446,19.1302-4.9973,5.6132-2.708,9.6044-10.4388,15.8261-11.8529,6.0255-1.3696,12.9617,3.8326,19.4019,3.8326s13.3765-5.2022,19.4022-3.8325c6.2218,1.4142,10.2131,9.1451,15.8265,11.8532,5.7058,2.7528,14.2292,1.084,19.1303,4.9976,4.9249,3.9326,5.1824,12.6226,9.1149,17.5476,3.9135,4.9011,12.3373,7.0734,15.09,12.7793,2.708,5.6132-.816,13.5414.5982,19.763,1.3696,6.0255,8.0182,11.6318,8.0182,18.072h0Z"></path><path class="cls-4" d="M171.8586,100c0,39.6864-32.1722,71.8586-71.8586,71.8586S28.1414,139.6864,28.1414,100,60.3136,28.1414,100,28.1414s71.8586,32.1722,71.8586,71.8586ZM100,33.5c-36.7269,0-66.5,29.7731-66.5,66.5s29.7731,66.5,66.5,66.5,66.5-29.7731,66.5-66.5-29.7731-66.5-66.5-66.5Z"></path><circle class="cls-2"></circle><path class="cls-2" d="M187.78,83.77v22.46c0,1.64-1.35,2.98-3,2.98h-18.92c-4.48,32.37-32.26,57.29-65.86,57.29s-61.38-24.92-65.86-57.29H15.22c-1.65,0-3-1.34-3-2.98v-22.46c0-1.64,1.35-2.98,3-2.98h21.1c8.24-27.36,33.63-47.29,63.68-47.29s55.44,19.93,63.68,47.29h21.1c1.65,0,3,1.34,3,2.98Z"></path><path class="cls-5" d="M184.71,76.78H15.28c-3.89,0-7.05,3.16-7.05,7.05v22.34c0,3.89,3.16,7.05,7.05,7.05h169.4301c3.9,0,7.06-3.16,7.06-7.05v-22.34c0-3.89-3.16-7.05-7.06-7.05ZM189.77,106.23c0,2.75-2.23,4.98-4.9901,4.98H15.21c-2.75,0-4.9901-2.23-4.9901-4.98v-22.46c0-2.75,2.2401-4.98,4.9901-4.98h169.5699c2.76,0,4.9901,2.23,4.9901,4.98v22.46Z"></path><path class="cls-4" d="M184.7864,111.2144H15.2146c-2.751,0-4.9893-2.2383-4.9893-4.9893v-22.4502c0-2.751,2.2383-4.9893,4.9893-4.9893h169.5718c2.751,0,4.9883,2.2383,4.9883,4.9893v22.4502c0,2.751-2.2373,4.9893-4.9883,4.9893ZM15.2146,80.7857c-1.6484,0-2.9893,1.3408-2.9893,2.9893v22.4502c0,1.6484,1.3408,2.9893,2.9893,2.9893h169.5718c1.6475,0,2.9883-1.3408,2.9883-2.9893v-22.4502c0-1.6484-1.3408-2.9893-2.9883-2.9893H15.2146Z"></path><path class="cls-4" d="M70.1227,54.1864c-1.688-1.9736-3.5355-3.0073-5.5408-3.1011-.7905-.0375-1.5828.0675-2.3789.3171-.0563.0169-.1108.0356-.1671.0544-.0807.0263-.1615.0544-.2422.0863-.0319.0113-.0657.0225-.0976.0356,0,0-.0019.0019-.0038.0019-.0075.0038-.0169.0056-.0263.0113-.0019,0-.0038.0019-.0056.0019-.2197.0863-.4394.182-.659.2927-.0038,0-.0056.0019-.0075.0038-.8243.4034-1.6523.9624-2.4859,1.6716l-2.9347,2.5064-.092.0788-.2084.1782-.0488.0413-1.012.8649-.0019.0019-.1108.0938.0939.1088.0038.0056.8881,1.0375.092.1088s0,.0019.0019.0019l.4732.5534.0038.0038.2216.2589,1.8983,2.2194.0131.0169.9069,1.0581c.0056.0056.0094.0094.0131.015l1.4983,1.7504.0019.0019.4901.5722.0094.0094.0563.0694.0056.0075.0432.0507,4.1739,4.8759.3079-.2626.077-.0657.0732-.0638.0751-.0638.0995-.0844.0789-.0675.0807-.0694.0732-.0619.2047-.1745.1239-.1069.107-.0919h.0019l2.4259-2.0749.0563-.0469.3342-.2852c.0882-.075.1727-.1501.2572-.227l.0019-.0019c.2309-.2026.445-.409.6515-.6191.0113-.0113.0225-.0244.0357-.0356.0469-.0488.0939-.0976.1389-.1463.0244-.0263.0488-.0525.0732-.0788l.0038-.0038c.0526-.0582.1051-.1163.1558-.1745.0263-.03.0526-.0582.077-.0882.1427-.1632.2779-.3283.4056-.4953.0526-.0675.1033-.137.1521-.2045l.0019-.0019c.0638-.0901.1277-.1801.1878-.272.0019,0,.0019-.0019.0019-.0019.0131-.0169.0244-.0338.0357-.0507.0376-.0582.0751-.1163.1127-.1745.0244-.0375.0469-.075.0713-.1126v-.0019c.1014-.167.1953-.3339.2835-.5047.0094-.0169.0169-.0338.0244-.0507.0638-.1182.122-.2383.1765-.3583.0188-.045.0376-.0882.0563-.1313.0263-.0619.0507-.1238.0751-.1839.0131-.0319.0244-.0638.0357-.0957.2403-.6266.3887-1.2682.445-1.9248.1878-2.1481-.6271-4.283-2.4446-6.4068h0l-.0004-.0002ZM67.8301,62.4523l-.0019.0019c-.0432.0694-.0882.137-.1389.2064-.0131.0206-.03.0432-.0451.0638-.1239.1726-.2685.3414-.4318.5103-.0282.0281-.0563.0563-.0845.0863-.107.1051-.2234.212-.3455.3171l-.0507.045-.0713.06-.6459.5497-6.0984-7.129,1.0026-.8555c.6008-.5122,1.1998-.8255,1.8006-.9437h.0019c.03-.0038.0601-.0094.0901-.015.0207-.0056.0413-.0075.062-.0094.0075-.0019.0131-.0019.0207-.0019.1296-.0188.261-.0263.3924-.0263.0263,0,.0526,0,.0789.0019.1258.0056.2516.0188.3793.0413.2309.0413.4638.1126.6985.2139.0451.0188.0901.0394.1352.0619.0244.0113.0507.0244.0751.0375.0488.0244.0976.0488.1465.0769.2403.1351.4844.3002.7304.499.0469.0375.0939.0769.1408.1163.0657.0563.1333.1163.199.1782.0282.0244.0563.0488.0826.0769.0357.0319.0713.0657.107.1013l.0019.0019.0488.0488c.0338.0338.0657.0675.0995.1013.0657.0657.1296.1351.1953.2064l.0019.0019c.0394.0432.0789.0882.1183.1332.0432.0488.0864.0976.1296.1482l.0338.0394.0019.0019c.1202.1426.2328.2796.338.4184.0012,0,.0019.0006.0019.0019.1127.1445.2159.287.3136.4296,0,.0019.0019.0019.0019.0038.614.9005.9332,1.7391.9576,2.5102.015.5197-.1089,1.0243-.3718,1.5102-.0319.06-.0657.1201-.1014.1782h-.0004ZM90.2393,54.858l-.2554-.1745-.0657-.045-6.7575-4.6339c1.365-1.6885,1.688-3.4313.9688-5.2323-.7135-1.7898-1.9433-2.7672-3.6839-2.936h-.0019c-.1239-.0113-.2497-.0188-.3774-.0206h-.0038c-.1765-.0075-.3586-.0056-.5464.0056h-.0056c-1.0364.0582-2.2231.3546-3.5618.8874l-4.7409,1.8929h-.0019l-.0451.0188-.3098.1238.1371.3396.0113.03.4882,1.2232.0019.0038.2741.6885.0019.0019.0244.0582c0,.0019,0,.0056.0019.0075l1.427,3.5664.0207.0525.3981.9962c.0019.0038.0038.0056.0038.0094l.5239,1.3132.0413.1051c.0019.0019.0019.0038.0019.0056l1.0477,2.619.0019.0038.1878.4709c.0038.0131.0094.0263.015.0394.03.075.0601.1501.0901.2251l.6027,1.5065.0019.0038.7229,1.8066.0601.1501.0601.1501.0244.0638.0432.1069.0263-.0113.03-.0113.0582-.0225.0545-.0206.6778-.272.0995-.0394h.0019l.0751-.0319.0601-.0225.0751-.03.1314-.0544.0826-.0319,2.6906-1.075.0526-.0206.0882-.0356-.1014-.2551-.0244-.0619-.1108-.2739-.0638-.1613c-.0019,0,0-.0019,0-.0019l-.0263-.0657-.015-.0356v-.0019l-1.9189-4.799,1.0646-.424,1.2843,1.0018.0676.0525.2103.1651.6853.5347.1371.1069.1859.1445.0394.03.1164.0919.0113.0094.1145.0882.1389.1088,1.6016,1.2495s.0019.0038.0038.0038l.4825.3771.0019.0019.3492.2739c.0019.0019.0038.0019.0056.0038l.1239.0957.0394-.015h.0019l.062-.0263.107-.0432.4394-.1745.1408-.0563.1089-.0432,2.2212-.8874.0207-.0094.1896-.075,1.4364-.5722-.1615-.1107h0l-.0002-.0003ZM78.5343,49.4831l-.7886.3133-1.4195-3.5514.8299-.3302c.9839-.394,1.733-.4015,2.2456-.0225.0282.0188.0563.0413.0845.0657.1971.1688.3549.4034.4732.6998.0638.1613.1127.3171.1465.4671.0075.0319.0131.0638.0188.0938.0094.0488.0169.0957.0225.1426.0038.0338.0075.0657.0094.0976.0094.1182.0075.2326-.0075.3433-.0019.0338-.0075.0675-.0131.0994-.0113.0619-.0244.1219-.0451.1801-.0075.0338-.0188.0657-.03.0976-.0882.2383-.2366.454-.4412.6491-.0094.0094-.0188.0188-.0282.0281-.2629.2401-.614.4503-1.0571.6266h-.0001ZM92.9224,38.8064l-.0131-.0957-.0244-.1595-.0244-.1688-3.3834.4897-.0939.0131-.1896.0281c-.0019-.0019-.0019,0-.0019,0l-.291.0413h-.0019l-.0413.0075-.0094.0019-.1671.0244-.3229.045.0601.4109v.0019l.0094.0713.2554,1.7522v.0019l.0056.0431v.0019l.0357.2533.0094.0657v.0019l.0338.2251v.0019l.0188.1313.1014.6941.0019.0131.0038.0206v.0019l.0094.0694v.0019l.0019.015v.0056l.0469.3171.0019.0131.0094.0619.0019.0206.0094.0619c0,.0038.0019.0094.0019.0131v.0056l.0094.0563.0038.0319.0094.0675.0075.0525.0169.1107.0038.0206v.0019l.015.1088.0638.4465.0056.0394v.0019l.2197,1.5046.0019.0131v.0113l.214,1.4727v.0038l.0019.0094.3455,2.3939v.0038l.0244.1745c.0019.0019.0019.0056.0019.0075l.1971,1.3526v.0056l.1371.9362v.0019l.0056.0413v.0019l.092.6379v.0019l.0094.0694v.0019l.0188.1238.0131.0863.03.212.0131.0901.0169.1182v.0019l.0207.1426.0131.0863.0338.242v.0019l.1502,1.0318.0131.0938.0188.1313.0131.0901.0319.2214v.0019l.0056.0338.2554-.0375,1.151-.167h.0019l.092-.0131s0,.0019.0019,0l.1108-.015h.0019l.1239-.0188.0188-.0019v-.0019l.0394-.0056.0131-.0019.3943-.0563.169-.0263h.0094l.4544-.0657h.0056l.5051-.0732,1.1547-.167-2.3339-16.1454h-.0004ZM112.5208,39.2192l-.0094-.0019-.1803-.0225-.0451-.0056-.4994-.0638h-.0019l-.2065-.0263-.2385-.03-.0432.3433-.0131.0994-.0056.0375v.0019l-.0113.0976-.0807.6153v.0019l-.0131.1051v.0019l-.0282.2233-.0131.1032-.1051.833c0,.0019-.0019.0038-.0019.0056l-.0131.1051v.0038l-.0826.6416-.0131.1051-.2084,1.6247-.0131.1032-.0169.1388v.0019l-.0131.0994-.1314,1.0225-.0131.1013-.0169.1313-.0113.0994-.1108.8611c-.0113.0844-.0225.1726-.0319.2626-.0131.1032-.0244.2082-.0376.3171v.0019c-.0019.0319-.0056.0638-.0094.0957-.0995.9136-.1915,2.0393-.276,3.375l-.0695-.0094-4.4631-12.0162-.0263-.0694-.0019-.0038-.0019-.0075-.0357-.0976-.03-.0807-.0131-.0356-1.5997-.2026h-.0019l-.0695-.0094-.0413-.0056-.0544-.0075h-.0019l-.0169-.0019-.0113-.0019-.4225-.0544-.6834-.0863-.015-.0019-1.1472-.1482s-.0019.0019-.0019,0l-.154-.0188-.0075-.0019-.0563-.0056-.0545-.0075-.0507-.0056-.0113-.0019h-.0038l-.1615-.0225h-.0038l-.7736-.0976-.0958-.0131-.4281-.0544-.0713.5553-.0131.1032v.0019l-.353,2.7672c0,.0019-.0019.0056-.0019.0094l-.0131.1088v.0056l-.1634,1.2645v.0019l-.0113.0938-.0056.0469-.0131.0976-.107.8536-.0131.0976-.2028,1.5796v.0038l-.0188.1445-.0038.0225c-.0019.0075-.0019.015-.0019.0225l-.0075.0525-.0657.5234-.0019.0188-.0056.0319-.0056.0507-.0019.0188-.0038.0281v.0019l-.0451.3452v.0019l-.0131.1051-.3699,2.8966-.0131.1032-.0056.0375v.0019l-.0131.1013v.0019l-.0038.0338-.0113.0938-.0338.2608-.0131.1069v.0019l-.1634,1.2795-.0131.0957-.03.2326v.0019l-.0113.0938-.1709,1.332c.0019.0019,0,.0019,0,.0019l-.0113.0938v.0019l-.1127.8761.1446.0188.03.0038.7285.0919.0451.0056.2197.0281.0526.0075.1784.0225.3962.0507.0657.0075.0901.0113,2.0278.2589.0094-.075.0131-.0957.9332-7.3148c.1239-.968.2309-2.3826.3229-4.2399l.1014.0131,1.5209,4.1442.0019.0019v.0019l.1352.3677v.0019l.0319.0882.0056.0169v.0019l.1164.3133.0169.0431v.0019l.0263.0713.0225.0619.0394.1051.0282.0788.3774,1.0318.0282.0769v.0019l.0263.0732.0282.075.6309,1.7166.0319.0882.0319.0882.0319.0863.4769,1.2964.0376.1032.0207.0563.0357.0976.1671.4578.0338.0901.0225.06.0357.0976.3398.9287.03.0825v.0019l.0113.0281.03.0807.2028.5534.6046.0769.2422.03.0394.0056.4356.0563.1896.0244.1164.015h.0056l.1915.0244.0075.0019.154.0188.0638.0094,2.5028.3171.0094.0019.3812.0488.0113.0019.8581.1088s0-.0019.0019,0l.0751.0094,2.1123-16.5469.0075-.0582-2.8202-.3602h-.0001l.0005-.001ZM134.9581,48.6201l-.0282-.015c-.0038-.0038-.0094-.0056-.015-.0094l-.9707-.5065-.0019-.0019h-.0038l-.3398-.1801-.0075-.0038-.0751-.0375-.0225-.0113-.0056-.0038h-.0019l-.0451-.0244-.1145-.06-.0038-.0019-.0169-.0094-.0169-.0094-.0319-.015-.1502-.0807-.077-.0413-.1277-.0657-.1746-.0901-.0075-.0038-.4732-.2476-.015-.0075-.1465-.0769-.9106-.4765-.0244-.0131-.0601-.0319-.015-.0075-.0826.0431h-.0019l-1.1115.591-.0357.0188-.0807.0431-.0901.0469h-.0019l-.5201.2777-.1258.0675h-.0019l-.5576.2964-.0113.0056-.0094.0056-.0038.0019-.0188.0094-.0563.03-.4807.2533-.0357.0206-.0094.0056-.3229.1707-.0056.0019-.0038.0019-.0113.0075h-.0019l-.0188.0094-.0113.0075-.4825.2551-.6252.3321-.0207.0113-.5652.2983-.1934.1032c-.0544.0281-.107.0544-.1577.0807-.0207.0113-.0394.0206-.0582.03h-.0019c-.9538.4915-1.6222.8724-2.0053,1.1444l3.374-6.4424-3.237-1.6922-.0282-.015h-.0019l-.0995-.0544-.6647-.3471-.3361.6416-.062.1182-.2159.4127-.0826.1576-4.4574,8.5136c-.0019.0019-.0038.0038-.0038.0056l-.1164.2214-.0469.0901-.0601.1163h-.0019l-.7736,1.4802-.0319.06-.1314.2514-.03.0582-.8337,1.5909-.0357.0694c0,.0013-.0006.0025-.0019.0038l-.3136.5947c.0019.0019.0019.0038-.0038.0056l-.1089.2101v.0019l-.1202.2289.4112.2157c.0019.0019.0038.0019.0056.0038l.1709.0882.5727.3002.0695.0356.1502.0788.0319.0169h.0019l.3211.1688.1502.0788.2253.1182h.0019l.0751.0394.6046.3171.0976.0507c0,.0019.0019.0019.0019.0019l.3286.1707.8092.424.0319-.0619.0864-.1632.0845-.1632.0432-.0807,2.3526-4.4932,1.5603-.0882-.0019.2251v.0919l-.0019.3396v.0019l-.0075,1.3977v.3883l-.0019.287v.1989l-.0019.1013-.0056.8686v.3621l-.0056,1.1088v.1107l-.0038.3921c.0012.0013.0012.0025,0,.0038v.1219l-.0019.1726c.0019,0,0,.0019,0,.0019v.1163l-.0019.3377v.1257l-.0019.4521.122.0638.0263.0131.2216.1163.0075.0038.0319.0169.0056.0038h.0019l.154.0807.0507.0263.3436.1801.0469.0244.1277.0675h.0019l.0526.0281.475.2476.1652.0863.2929.1538.3718.1932c.0019.0019.0038.0038.0075.0038l2.0222,1.0581-.0169-.6003-.0038-.0713-.0019-.1051-.0019-.0432-.0019-.0413-.0019-.0619-.0019-.1051-.0019-.0957-.2798-9.4685,3.2989-1.696.0282-.015,2.5967-1.3358.015-.0075.8374-.4296.0864-.045.9839-.5047.0038-.0019.1446-.075.0751-.0394.092-.0469-.5032-.2626h0l.0009.0002ZM146.4303,60.5275c-.2779-.6979-.5971-1.3526-.9538-1.9605-.0169-.0319-.0357-.0619-.0544-.0919-.1127-.1914-.2291-.379-.3511-.5591-.0019-.0019-.0019-.0038-.0038-.0056-.184-.2777-.3774-.5441-.5802-.7992-.03-.0394-.0601-.0788-.0939-.1163-.0169-.0225-.0338-.0432-.0526-.0657-.1033-.1257-.2084-.2495-.3173-.3696-.0676-.0769-.1352-.152-.2065-.2251-.0019-.0019-.0038-.0038-.0056-.0056v-.0019c-.1051-.1126-.2103-.2176-.3192-.3246-.0131-.0131-.0263-.0263-.0394-.0375-.0338-.0319-.0657-.0619-.0976-.0957h-.0019c-.0376-.0375-.0751-.0713-.1127-.1069-.0638-.0582-.1258-.1144-.1896-.1688-.0113-.0131-.0244-.0225-.0376-.0338-.0038-.0038-.0075-.0075-.0113-.0094-.0075-.0075-.0169-.015-.0244-.0225-.0019-.0019-.0038-.0038-.0075-.0056-.0432-.0375-.0845-.075-.1296-.1107l-.0038-.0038c-.0845-.0732-.1709-.1426-.2554-.2064-.0507-.0432-.1014-.0825-.1521-.1219-.0019-.0019-.0038-.0038-.0056-.0056-1.0496-.7936-2.0992-1.2532-3.1487-1.3789-.5464-.0657-1.0683-.0338-1.564.0919-.0019,0-.0038.0019-.0056.0019-.0732.0188-.1446.0394-.2178.0638-.0075.0019-.0169.0056-.0244.0075-.0094.0019-.0169.0056-.0244.0075-.0488.0169-.0958.0338-.1446.0525h-.0019c-.0845.0319-.1671.0657-.2497.1032h-.0019c-.0432.0188-.0845.0394-.1277.0619-.0638.0319-.1258.0657-.1896.1013h-.0019c-.122.0675-.2422.1426-.3605.2232-.0019.0019-.0038.0038-.0056.0038-.2798.1914-.5483.4202-.8074.6866-.5501.5628-.9444,1.1369-1.1829,1.7241-.0019,0,0,.0019,0,.0019-.0113.0263-.0207.0525-.0319.0807-.0094.0263-.0207.0525-.0282.0807-.1183.3264-.1934.6698-.2234,1.0262v.0056c-.0038.0319-.0075.0638-.0094.0976v.0038c-.0019.0225-.0038.045-.0038.0675v.0019c-.0019.0263-.0019.0507-.0038.0788v.0019c-.0094.2064-.0038.4165.0169.6322.0038.0356.0075.0713.0113.1069v.0056c.0019.015.0038.0319.0056.0469v.0075c.03.257.0864.5384.1634.848.0038.0169.0094.0319.015.0488-.0019.0019,0,.0038,0,.0038-.0019.0019,0,.0038,0,.0038.0676.2664.154.5516.2554.8555,0,.0012.0006.0025.0019.0038.0056.0188.0131.0375.0188.0563,0,.0038.0019.0056.0019.0075.0807.2401.1709.4915.276.7542.4487,1.1425.7229,1.8911.8224,2.2475.0056.0225.0113.045.015.0638.0019.0056.0019.0113.0038.015.0094.0356.0169.0694.0225.1032.0056.0263.0113.0507.015.0769.0188.0938.03.182.0376.2664.0019.0319.0038.0638.0056.0957.0019.0619.0019.1219-.0038.1764-.0019.0263-.0038.0525-.0075.0769-.0019.0075-.0019.0131-.0038.0206-.0038.0281-.0094.0563-.0188.0844-.0075.0375-.0188.0713-.0319.1069s-.0282.0694-.0469.1013c-.0451.0882-.107.1726-.1821.2495-.2572.2626-.5783.3677-.9651.3152-.3136-.0432-.6553-.2214-1.0308-.5384h-.0019c-.062-.0525-.1239-.1069-.1896-.1651l-.0019-.0019c-.0263-.0263-.0526-.0507-.0789-.0769-.5558-.5441-1.0815-1.2307-1.5753-2.058-.3248-.5459-.6102-1.1125-.8524-1.6978h-.0019c-.0113-.0244-.0207-.0488-.03-.075-.0131-.0281-.0244-.0563-.0357-.0844-.0526-.1332-.1051-.2645-.154-.3996v-.0019c-.0075-.0206-.015-.0413-.0225-.0619-.0094-.03-.0207-.0582-.03-.0882-.0094-.0244-.0188-.0469-.0263-.0713v-.0019l-.0113-.0338c-.0131-.0356-.0263-.0713-.0376-.1069l-.0488.0507-.3417.3489-.03.0319v.0019l-.0338.0319-.0451.045-.0939.0957-.0376.0394-.1089.1107-.0376.0375-.6346.651-.0282.0281-.1446.1482-.0413.0432-.6346.6472-.0019.0038-.214.2176-.0019.0019-.1108.1144-.0713.0732-.0469.0488-.0657.0675-.0451.045c.1089.2945.2234.5741.3455.8424v.0019c.0225.0469.0432.0938.0657.1407.0263.0525.0507.1069.077.1595.0244.0525.0507.1032.0789.1557v.0019c.1239.242.2535.4709.3905.6885.0244.0413.0507.0825.077.1219.0263.0413.0544.0825.0807.1219.2647.3921.599.8105,1.0026,1.2551.0019.0019.0038.0038.0038.0056.2535.2795.5314.5666.8393.8667.1521.1482.306.2908.4619.4259,0,.0019.0019.0038.0038.0019.7529.6604,1.5302,1.1481,2.3264,1.4671.0582.0225.1183.045.1765.0675s.1164.0432.1746.0619h.0019c.1164.0394.2309.0732.3455.1032.0019,0,.0038.0019.0056.0019.2798.0769.5558.1294.828.1595.0038,0,.0075.0019.0094.0019.0826.0094.1671.015.2497.0206h.0019c.0507.0038.0995.0056.1483.0075.0751.0019.1483.0038.2216.0019.0113,0,.0225,0,.0338-.0019.3136-.0038.6215-.0413.9238-.1088.4168-.0938.8111-.2364,1.1829-.4315.0019-.0019.0038-.0019.0056-.0019.1258-.0657.2478-.137.3661-.2157.154-.0994.3023-.2082.4487-.3246l.0019-.0019c.0751-.0619.1502-.1257.2234-.1895l.0019-.0019c.092-.0844.1803-.1688.2685-.2589.0488-.0488.0958-.0994.1408-.1482.0582-.0638.1127-.1257.1671-.1895v-.0019c.0207-.0244.0394-.0469.0582-.0713.567-.6885.8994-1.4164.997-2.1875.1202-.9249-.1108-2.1237-.6891-3.5964-.5971-1.5421-.9257-2.5252-.9876-2.9473s.0226-.7523.2516-.9868c.214-.2176.4882-.3077.8243-.2683.062.0075.1277.0206.1934.0413.0319.0094.0657.0225.0995.0356h.0019c.1051.0432.214.1013.3286.1782.1634.1051.3323.2458.5107.4202.3229.3152.6309.6941.9219,1.1369v.0019c.0038.0038.0056.0056.0056.0094.0244.0338.0451.0675.0676.1013.0038.0075.0094.0131.0131.0206.246.3865.4788.8161.7022,1.2945,0,.0019.0019.0019.0019.0038.0282.0638.0582.1276.0864.1914.0075.015.015.0319.0207.0488.0169.0375.0338.075.0507.1126s.0319.075.0469.1126c.0169.0394.0338.0788.0507.1201.0075.0169.015.0338.0207.0507.0169.0394.0319.0769.0469.1163l.0019.0019c.0376.0919.0751.1857.1108.2795l.2535-.1126.0282-.0131.062-.0281h.0019l.0056-.0019.0019-.0019.0075-.0019.0019-.0019h.0019l.0864-.0394.6159-.2739h.0019l.0732-.0338,2.2944-1.0225c-.0056-.0131-.0113-.0263-.0169-.0394h0l-.0002-.0002ZM49.7094,130.7973l-.0901.1069-.1239.1445-.0901.1069-.4131.4859-.0638.075-.0807.0938-.0657.0788-.0713.0825-.0563.0675-.0207.0244-.0582.0675-.3229.3808-.0469.0563-.0657.0788-.0488.0563-.2122.2495.7229,1.0787.0131.0188.1803.2683.0038.0056v.0019l.2234.3302.0019.0019.0338.0488c0,.0013.0006.0025.0019.0038l.3605.5403.0019.0019.122.182c0,.0019.0019.0019.0019.0019l.6553.9774.1033-.0338.0958-.0319.1465-.0469.0808-.0281.03-.0094.0544-.0169.1164-.0375.0394-.0131.6328-.2064c.0019,0,.0038-.0019.0056-.0019l.1014-.0338.03-.0094.0019-.0019.0244-.0075.0263-.0094.0563-.0188.2478-.0807c.0376-.0131.077-.0244.1145-.0375l.2798-.0919.1784-.0582.0469-.015.0394-.0131.7567-.2476.0526-.0169.0507-.0169.7905-.2589s0-.0019.0019,0l.9163-.3002h.0019l.1765-.0582s.0019-.0019.0056-.0019l.4337-.1426h.0019l.0357-.0113.5276-.1745.0582-.0188.2328-.0769c.0019,0,.0019-.0019.0038,0l.9219-.302h.0075l.0413-.015.0469-.0169.0263-.0075.3267-.1069.0394-.0131h.0019l.0056-.0019,1.1003-.3602.1953-.0638h.0019l.3173-.1051.1164-.0394.154-.0507.0582-.0188h.0019l.0732-.0244h.0019l.1615-.0525,1.4082-.4615.0563.0825c-.1277.0769-.2516.1501-.3699.2214-.0013,0-.0025.0006-.0038.0019-.1314.0807-.2572.1557-.3793.2289,0,.0019-.0019.0019-.0019.0019-.1277.075-.2497.1482-.3661.2195-.8693.5216-1.442.8724-1.718,1.0468-.2347.1482-.4544.2908-.659.4259-.0451.03-.0901.06-.1352.09h-.0019c-.0807.0525-.1596.1051-.2366.1557l-.0188.015c-.0019.0019-.0038.0019-.0056.0019l-.139.0919-.3286.2214-.0413.0263-.0676.0469-.0394.0263-2.5122,1.681-.1352.09-.0225.015-.1634.1126h-.0019l-.3605.2401-.1239.0825-.3323.2233-.1333.0882-.0601.0394-.0469.0319-.0864.0582-.3999.2683-.0526.0356-.1352.09-.0507.0338-.5914.3977-.0469.03-.0113.0075.077.1144.1634.2439.7116,1.06.0113.0169.2535.3752v.0019l.0432.0657c0,.0019.0019.0019.0019.0019l.2234.3339.1033.1538.567.8442c.0019.0038.0038.0056.0056.0056l.0807.1238.0319-.0206.1145-.0769.015-.0094.0526-.0356.0225-.015.0657-.045.077-.0525.3455-.2308.2554-.1707.0225-.015h.0019l4.0425-2.7072.0563-.0375.0657-.045.3323-.2214h.0019l.4469-.3002,1.335-.8949.3117-.2082.1896-.1276,2.0541-1.3733.0188-.0131.4619-.3096,1.1397-.7654h.0019l1.5265-1.0206.2103-.1407.246-.1651c0-.0019.0019-.0019.0019-.0019l.0263-.0169-.0056-.0094h0l-.1239-.1839-.0244-.0375-.1089-.1613-.5839-.8705-.2985-.4446-.0113-.015-1.7311-2.5815-.062-.0938-.0451-.0675-.261-.3883-.5708.182-.2178.0694h-.0019l-1.0083.3246h-.0038l-.6947.2233-.1953.0619-.1634.0525-1.7274.5534-.0413.0131-.0958.03-.0751.0244-1.4026.4484-.0225.0075-.077.0244-.0563.0188-.3849.1238-.0545.0169h-.0019l-.0695.0225-.3286.1051h-.0019l-.092.03-.2047.0657-.0657.0206-.8881.2852-.0545.0169-.1859.06-.0582.0188-.6421.2045-.2985.0957-.0545.0169h-.0019l-1.6711.5366-.0488-.0732,7.6813-9.2133-2.0954-3.1255-.0169-.0263-.1371-.2045-.0019-.0019-.1502-.2233-.0751-.1107-.0263-.0413-.0169-.0244-.0582-.0882-.0451-.0675-.3849-.5722-.0864-.1276-.0507-.075-.1033-.1557-1.089.7298c-.0038.0019-.0075.0038-.0094.0056l-.5858.3921-.0019.0019-5.1521,3.452-.0357.0225-2.5629,1.7147-.3286.2214-1.8363,1.2288-.0056.0038-1.0008.6716h-.0019l-.1014.0675-.7604.5103.3887.5816.0056.0075v.0019l.1634.2401.4976.7392v.0019l.0094.015.2309.3433.0019.0019.015.0206.0019.0038.3755.5609.0376.0563.4337.6472.0169-.0113.0282-.0188.0225-.015.0282-.0188.0958-.0638.0526-.0356.1483-.0994.0507-.0338.1746-.1163.0563-.0375.4356-.2927.1803-.1201.0507-.0338,4.5119-3.0205c.9144-.6135,2.1555-1.5384,3.7214-2.7728l.0563.0825-2.3827,2.8047-.1652.1951-.3549.4184-.5952.7035c-.0056.0038-.0094.0094-.015.015l-.1427.1651-.0901.1069-.0019.0019-.0263.0319-.1371.1613-.1389.1632-.0019.0019-.2929.3452-.1371.1613v.0019l-.4919.576v.0019l-.1296.152v.0019l-.184.2158-.1127.1313v.0019M74.4674,137.7856l-.0376-.0263-.0939-.0675-1.012-.7242-.062-.045-.0038-.0019-.0976-.0694s-.0019,0-.0038-.0019l-.0958-.0694-.0038-.0019-.1577-.1144-.0976-.0713h-.0019l-.0188-.0131-.03-.0225-.0451-.0319-.0094-.0075-.0413-.03-.0282-.0206-.3004-.2139-.0469-.0319-.0601-.0431-.0601-.0431-.1934-.1388-.2985-.2139-.3136.2308-2.6455,1.9492-.0526.0375-.3492.257-.1164.0863c-.0056.0038-.0131.0094-.0207.0169l-3.2182,2.3676-.0019.0019-.1502.1107-.4844.3565c-.0013,0-.0025.0006-.0038.0019l-.184.1351-.2854.212c-.0019.0019-.0038.0019-.0056.0038l-.4112.302s-.0019.0019-.0038.0019l-2.7357,2.0168-.1352.0994h-.0019l-.3192.2345-.2366.1764h-.0019l-.4769.3489-.0019.0019-.1089.0807-.0094.0056-.0188.015-.0601.045-.0094.0056-.0019.0019-.03.0225-.2647.1951-.0094.0056-.0169.0131-.1277.0938h-.0019l-.4863.3602-.0958.0713-.0713.0525-.1896.1369-.0094.0075-.1183.0882.1202.0863.0094.0056.0244.0188.0357.0244.0019.0019.0882.0638.0038.0019.3567.2533.0169.0131.1033.075.0131.0094.4318.3096.0188.0131.154.1107.0075.0038.0019.0019.1258.09.0188.0131.4769.3414.0207.015h.0019l.2441.1764.0582.0413.7003.5009v.0019l.0056.0038.875.6247.0545-.045.0864-.0713.0807-.0657.3286-.2683.1634-.1332.0676-.0563,1.656-1.3508.2967.212.062.045.1634.1163h.0019l.6966.499.1465.1051h.0019l.1558.1163h.0056l.1465.1051h.0019l.1671.1219.0019.0019.2197.1576.4581.3264.0038.0038.8449.6041.0113.0094.7848.5609.1127.0807-.0131.0375-.1089.2814-.03.0769-.0263.0694-.0338.09-.1652.4334-.0263.0694-.0957.2514-.0282.0713-.1427.3715v.0019l-.0263.0657v.0019l-.0545.1463-.0225.0582v.0019l-.0075.0188-.0188.0488-.1258.3264-.015.0394-.1802.4728.2854.2045.077.0544.1596.1144.0657.0469.0244.0188.0469.0338h.0019l.0676.0488.0413.03.2103.1501.0394.0281.3361.2401.0545.0394h.0019l.5689.409.0019.0019.1784.1276.9576.6848.0713.0507.2309.1651h.0019l.0845.0619h.0019l.0207.0169.0019.0019.0638.045.0131.0094.1202.0863.0225.015.0113.0075.0901.0657.0207.015.0225.015.0319-.1013.0394-.1257.0432-.1369.0376-.1182v-.0019l.0545-.1764.0394-.1238.0263-.0863,4.8555-15.4756-1.9527-1.3977h0l-.0003-.0006ZM72.0341,140.7704c-.0169.0431-.0338.0844-.0526.1294v.0019c-.0845.2064-.1746.4315-.2723.6773-.0958.2383-.184.4653-.2685.6791-.0113.0319-.0244.0638-.0357.0938-.0113.0263-.0207.0507-.03.075-.0131.0319-.0263.0638-.0376.0957-.0244.0619-.0488.1238-.0713.1839-.015.0319-.0263.0657-.0394.0976-.0188.0488-.0376.0994-.0563.1463-.0131.0319-.0244.0638-.0357.0957-.1051.272-.199.5197-.2816.7429l-.1014.2664-.0394.1032-.0601.1595-.0432.1107-.4807,1.2532-.0319.0844v.0019l-.2253.591-2.8051-2.0074c.3267-.2702.6365-.5272.9294-.7673.0056-.0056.0131-.0113.0188-.015.2385-.1989.4675-.3902.6816-.5685.0357-.03.0732-.06.1089-.09.0263-.0225.0526-.0431.0789-.0657.0019-.0019.0038-.0038.0056-.0038.1821-.1538.3549-.2983.5182-.4352.0319-.0263.0638-.0525.0939-.0788.7229-.606,1.2561-1.0637,1.6035-1.3714.6628-.5891,1.1322-1.0168,1.4044-1.2851-.1164.2495-.276.6135-.475,1.0975v.0019h-.0001ZM92.7046,146.6594c-.0169-.015-.0338-.03-.0507-.0431-.0901-.0788-.1859-.1576-.2835-.2364-.4056-.3227-.8693-.6397-1.3894-.9512-.0188-.0113-.0394-.0244-.0582-.0338-.0019-.0019-.0056-.0038-.0075-.0038-.0751-.0469-.1502-.0919-.2291-.1351-.8055-.4578-1.6936-.8424-2.6662-1.1519-.6252-.1989-1.228-.3471-1.8119-.4409-.0019-.0019-.0038-.0019-.0056,0-.0094-.0038-.0207-.0038-.03-.0038-.3981-.0657-.7867-.1069-1.1641-.1219h-.0038c-.2253-.0094-.4487-.0094-.6684-.0019-.0864.0038-.1727.0094-.2572.015-.0113,0-.0225.0019-.0338.0019-.0357.0019-.0695.0056-.1051.0075-.0019.0019-.0019,0-.0019,0-.0432.0038-.0845.0075-.1258.0131-.0319.0019-.062.0056-.0939.0113-.1108.0131-.2197.0263-.3267.045-.0413.0056-.0808.0131-.122.0206-.0169.0019-.0338.0056-.0507.0094-.0113,0-.0225.0038-.0338.0056-.03.0056-.062.0113-.0939.0188-.0695.0131-.1352.0281-.2028.045h-.0019c-.139.0319-.2741.0675-.4093.1088-.0038.0019-.0075.0019-.0113.0038-.062.0169-.1239.0375-.184.0582-.0038.0019-.0075.0019-.0113.0038-.3079.1032-.6046.227-.8956.3715-.3624.182-.7041.3921-1.0252.6322-.1239.09-.2422.1858-.3586.2852-.1183.1013-.2328.2045-.3436.3133l-.0019.0019c-.0901.0882-.1784.1782-.2629.2739-.0019,0-.0019.0019-.0019.0019-.1634.1764-.3173.3621-.4656.5591-.0019,0-.0019.0019-.0038.0038,0,0,0,.0019-.0019.0019-.6346.8386-1.1435,1.8611-1.5284,3.0655-.0676.2082-.1277.4165-.184.6191,0,.0019-.0019.0038-.0019.0056-.3643,1.3433-.4882,2.5758-.3661,3.6977v.0019c.0638.5872.1934,1.1444.3905,1.6716.0019,0,.0019.0019.0019.0038.0207.0563.0432.1107.0657.1651,0,.0056.0019.0094.0038.0113.0488.1182.0976.2327.154.3471.0882.1857.184.364.2892.5384.0225.0375.0451.075.0676.1107.184.2908.3905.5666.6215.8255.0094.0131.0188.0244.03.0356l.0019.0019c.015.0169.0282.0319.0432.0469.0751.0825.1502.1613.2309.2383,0,.0019.0019.0019.0019.0019.6553.6454,1.4702,1.1819,2.4446,1.6078.3549.1557.7304.2964,1.1284.424.1915.0619.383.1201.5745.1745.0019,0,.0056.0019.0075.0019,1.6523.4803,3.2558.7467,4.8123.7936h.0019c.2084.0075.4131.0113.6196.0075h.0019c.0845,0,.1671,0,.2497-.0019l.0563-.1764.1033-.3246.0169-.0507.0376-.1201,1.4551-4.5532.0169-.045v-.0056l.0901-.2833v-.0038l.1427-.4446.0319-.1013.0582-.1801.0282-.0882.4581-1.4333v-.0056l.0789-.2383c-.0019-.0019,0-.0019,0-.0019l.0845-.2645-1.4964-.4784h-.0019l-.2629-.0844-.1709-.0544-1.6861-.5384h-.0019l-.2591-.0844h-.0019c-.0013.0012-.0025.0012-.0038,0l-.5032-.1595h-.0019l-1.6974-.5422-.0169-.0056-.1652-.0525-.0094-.0038-.3887-.1238-1.0289,3.2212.9426.302h.0019l.1915.06.0225.0075.3492.1126.0244.0075h.0019l.1314.0413.0169.0056,1.0759.3433-.4563,1.4258-.0319.1013-.0131.0413-.0094.0281-.0225.0713-.0263.0844-.03.09-.184.576c-.5595-.0469-1.1491-.1689-1.7687-.3677-.1652-.0525-.3229-.1107-.4713-.1782-.0019,0-.0019.0019-.0019.0019v-.0019c-.0169-.0075-.0338-.015-.0507-.0225-.0319-.0131-.0638-.0281-.0939-.0431h-.0019c-.0657-.0319-.1296-.0638-.1915-.0994-.0488-.0281-.0976-.0563-.1465-.0863-.107-.0657-.2103-.1351-.306-.2101-.4487-.3489-.7755-.7917-.9782-1.3264-.3605-.9474-.3098-2.1443.1502-3.587.1634-.5103.353-.968.5727-1.3714.0319-.06.0638-.1163.0976-.1726v-.0019c.1746-.3058.3699-.576.5821-.8142.0038-.0056.0094-.0094.0131-.015.1183-.1332.2441-.257.3737-.3696.0901-.0788.1821-.152.2779-.2176.0207-.0169.0432-.0319.0657-.045.0131-.0094.0244-.0188.0376-.0263v-.0019c.0207-.015.0432-.0281.0638-.0413.3229-.2026.6609-.3489,1.0214-.4296h.0019c.0845-.0206.1709-.0375.2572-.0507h.0019c.0601-.0094.122-.0169.184-.0225.0282-.0038.0582-.0056.0864-.0075h.0038c.4018-.03.8205.0094,1.2636.1182h.0038c.1258.03.2516.0657.3812.1069.2948.0938.5783.1989.8524.3171.0357.015.0695.03.1051.045h.0019c.0376.0169.0751.0338.1127.0525.0169.0056.0338.015.0507.0225.2422.1126.4769.2345.7022.3696.0019,0,.0038.0019.0056.0019.122.0694.2422.1445.3605.2214h.0019c.0432.0281.0864.0563.1296.0863.0695.0469.1389.0938.2065.1445.2234.1613.4375.3339.6421.5159.0282.0244.0545.0488.0807.0732.0507.0469.1014.0938.1521.1426l.1671-.2007.0526-.0657.0469-.0563.0263-.0319.7398-.8893.0901-.1088.0263-.0319.0319-.0394.0113-.0131.2685-.3227v-.0019l.0394-.045.015-.0188c0-.0019.0019-.0019.0019-.0019l.0319-.0375.0263-.0319.0019-.0019.2047-.2458.0019-.0019.0958-.1182.062-.0732.0826-.0994.0056-.0075.1558-.1876.1183-.1426.062-.0732v-.0019l.0019-.0019c-.0056-.0038-.0094-.0094-.015-.0131h0ZM109.1993,161.9812l-.1296-.3733-.0526-.1463-5.2085-14.9954-.0451-.1294-.0958-.2777v-.0019l-.0244-.0675-.2291.0038-4.9193.0807-.6966.0113-.1596.5216-.0282.0919-.0376.1182-.0319.1051-.1277.4146-.0113.0356-.0319.1051-.154.499-.0019.0056-.1145.3733-.0019.0038-3.9373,12.8135-.0019.0038-.2572.8349-.1314.4277.2309-.0038.2892-.0038.2328-.0038.0545-.0019.2122-.0038h.0545l.1164-.0019.0807-.0019.6759-.0113h.0019l.154-.0019.1896-.0038.3962-.0056.2967-.0038h.0056l.5877-.0094h.0038l.3154-.0056.4469-.0075.3643-.0056.1051-.0019.0244-.0938.1033-.4109.0019-.0094v-.0019l.0488-.1857.0244-.0994.5689-2.2494.1709-.0019h.0056l.276-.0056h.0019l1.6842-.0263h.0019l1.5453-.0244h.0056l1.5096-.0244.0676-.0019.0469.167v.0019l.1145.4071.0131.0431.0207.075.0732.2645.0394.1351.3136,1.12.1202.4277.107.3808.3286-.0056.4487-.0075h.0019l.5501-.0075h.0019l1.1003-.0188.5389-.0075h.0019l.4938-.0094.5257-.0075.1202-.0019h.015l.2873-.0056.2516-.0038.1258-.0019-.0657-.1914h0v.0006ZM100.7914,148.7081c.0319.1576.077.3546.1314.5947v.0019c.0019.0075.0038.0131.0056.0206v.0019c.0882.3696.2065.8311.3567,1.3902.1164.4352.2234.833.3229,1.1932v.0019c.0075.0263.0131.0507.0207.0769.015.0525.0282.1051.0432.1576.0056.0225.0131.045.0188.0675.0244.0825.0451.1651.0676.242.0075.0263.015.0525.0225.0769.0282.1032.0563.2007.0845.2964.0075.0263.015.0507.0225.0769.0075.0319.0169.0638.0263.0957l.5802,2.0674.0056.015.0038.0131.0188.0694.0019.0131.0038.0094.1296.4615-3.451.0544c.6328-2.5514,1.0383-4.2624,1.2204-5.1292.1821-.8686.3042-1.4915.3643-1.8686h0v.0002ZM124.2314,157.6944v-.0019l-.0075-.0206v-.0019l-.0038-.0075v-.0019l-.1239-.4277-.0282-.0938-.0075-.0263-.0376-.1238v-.0019l-.015-.0544-.6759-2.3019-5.8187,1.7016-.0582.0169-.5051.1482-.1784.0525-.3492.1013.0939-.2758.0282-.0788v-.0019l.062-.1839.077-.227.0413-.1182.03-.0882v-.0019l.0038-.0113,1.3706-4.0242.0056-.015,2.2212-6.5193-.4825-1.6509-.0188-.0657-.0319-.1069v-.0019l-.2234-.7598-.062.0188-.0244.0075-.092.0263-.0357.0094-.03.0094-.0338.0094h-.0019l-.1446.0431-.077.0225-.9688.2833h-.0019l-.1859.0544-.1652.0488h-.0019l-4.1044,1.2026-.0113.0038-4.3898,1.2832c-.0038.0019-.0075.0038-.0131.0038l-1.1341.3321h-.0019l-.3173.0938v.0019l.0263.0882.0244.0807v.0019l.0488.1689.0864.2927.1427.4859.0207.0694.0507.1764.2065.7035.0188.0657.077.2645v.0019l.0075.0225v.0019l.1934.6491v.0019l.0413.1407v.0019l.0507.1745.1389-.0413.0864-.0244.4112-.1201.0131-.0038.4056-.1201h.0019l.2009-.06h.0019l.5708-.1651.1108-.0319,1.2148-.3565h.0019l.4412-.1294h.0056l.4901-.1463h.0019l.03-.0094.1352-.0394.0376-.0113,1.7987-.5253.2741-.0807.0263-.0075.1803-.0525-2.1273,6.236-.0019.0038-.0751.2214c0,.0013-.0006.0025-.0019.0038l-.154.4503c-.0019.0038-.0038.0075-.0056.0113l-.0357.1126v.0019l-.0563.1613-.0019.0038-.1803.5291v.0019l-.0563.167c-.0012.0012-.0019.0025-.0019.0038l-.199.5835c0,.0019-.0019.0019-.0019.0038l-.0282.0863c-.0019.0019-.0019.0038-.0019.0075l-.092.2664v.0019l-.2873.8405v.0019l-.1089.3171v.0019l-.0056.015-.0075.0206v.0019l-.1502.4409v.0019l-.1577.454v.0019l-.0113.0338-.1709.499v.0019l-.015.045.0113.0338v.0019l.246.8442.0019.0094.1746.591v.0019l.1277.4352.0638.2176.1239.4221.0113.0394.03-.0094.2629-.0769.0432-.0131h.0019l.2178-.0638,1.2298-.3602h.0056l.8731-.257.0056-.0019,2.4033-.7016,1.3481-.3958.0207-.0056,3.3891-.9924,1.0721-.3133.1033-.03.3004-.0882.0995-.03h.0019l.2629-.0769h.0019l.1183-.0356.1314-.0375.0413-.0131.0113-.0038.0882-.0244.062-.0188-.0958-.3283h0v-.0012ZM131.646,153.9873l-.0357-.0675v-.0019l-.1352-.2514-.2103-.3977-.015-.0281-.0376-.0694-.0075-.0131v-.0019l-.0263-.0488-.0319-.0619-6.5172-12.2976-.0019-.0038-.1014-.1876-.0113-.0206v-.0019l-.0244-.045-.2572-.4878-.0075-.0131v-.0019l-.0188-.0338-.015-.0281v-.0019l-.0225-.0394-.0038-.0075-.0544-.1032-.0094.0056-.077.0394-.1202.0638-1.0796.5722-.1971.1051-.1183.0619-1.1942.6322-.0169.0094-.3436.182h-.0019l-.4938.2627-.0638.0338-.0432.0225-.0657.0356-.0657.0338.2873.5422.0263.0469v.0019l.0075.015.0169.03.0038.0075.3999.7579v.0019l.0244.0413.0451.0844.7172,1.3545.0075.015,4.08,7.6956.0019.0038.0038.0056,1.2786,2.4164.0019.0019.4187.7879.1389.2627.1314.2476.2741-.1445.3211-.1707,1.519-.803.0094-.0056.0357-.0188.4074-.2158h.0019l.2422-.1294h.0019l.1089-.0582.6008-.3171.2178-.1163.0695-.0356.0807-.0431-.0563-.1069h0ZM148.0318,140.9693l-.2629-.2889-.0225-.0244-.0113-.0131v-.0019l-.0188-.0188-.1296-.1426-.0019-.0019-.2403-.2664-.0019-.0019-.3774-.4165-.0432-.0469-.0882-.0976-.0601-.0675-.6459-.711-.0019-.0019-.5877-.6472-.1465-.1632-.0544-.06-.7867-.8686-.0469-.0525-.0488-.0525-.9951-1.0975-.0019-.0038-.9857-1.0862-.1596-.1764-.2854-.3133-.0676-.075-.0019-.0019-.1615-.1782-.0225-.0244-.0056-.0075-.0019-.0019-.122-.1351-.092-.1013-1.1247-1.2401-.1033-.1144-.0094-.0113v-.0019l-.0075-.0094-.4431-.4859c-.0019-.0019-.0019-.0038-.0038-.0056l-.6741-.741-.1709-.1876-.0808-.0882v-.0019l-.0376-.0413-.0638-.0713-.0995-.1107-.0038-.0019-.0019-.0019-.0376-.0413v-.0019l-.0695-.0769-.0845-.0938-.0507-.0544c-.0019,0-.0019-.0019-.0019-.0019l-1.0665-1.1744-.0019-.0019-.0751-.0844-.0019-.0019-.0957-.1069-.0657.06-.0319.0281-.0507.045-.0864.0788-.0638.0582-2.5779,2.3319-.0188.0169.3154.3489h.0019l.3079.3414.0019.0019.4356.4803.0131.015.0019.0019.122.1332.0019.0019.0394.045.0019.0019,3.0173,3.3281.0432.0469.0507.0582.0019.0019.567.6247.0056.0056c.0012.0012.0019.0025.0019.0038.2647.2927.5708.6172.9181.9737.0357.0375.0713.075.1089.1126.0582.06.1183.1219.1803.1839.0376.0394.0789.0807.1183.1201l.0019.0019c.1784.182.3661.3715.5652.5666l.0901.09c.0188.0206.0376.0394.0582.0582.2253.2233.4619.4559.7097.696l-.0488.0431-1.1585-.4259-.1446-.0544s0,.0019-.0019,0l-.2741-.0994-.0019-.0019-.1427-.0525h-.0019l-.4901-.1801-.0056-.0019-6.0703-2.2325h-.0019l-.2347-.0863h-.0019l-.7172-.2627-.0451-.0169-.1615-.06-.1352-.0507h-.0019l-.1765-.0657-.0488-.0169-2.1236-.7804-.828.7486-.0169.015-.5032.4559-.1389.1257-.0019.0019-.8543.7767-.0657.0582-.1953.1745-.0826.075-.1803.1632-.107.0976-.935.8442-.0638.0582-.0901.0825-.0188.0169-.03.0263c-.0013.0013-.0019.0025-.0019.0038l-.1296.1163.0432.0488.0282.03.3849.4221c-.0013,0-.0013.0006,0,.0019l.0319.0356.0807.0919.0319.0338.6722.741.0319.0356.0225.0244.1371.1501.4638.5122.0789.0863c0,.0012.0006.0019.0019.0019l1.7987,1.9849c.0019,0,.0038.0019.0056.0056l2.8164,3.1086.0056.0056,3.2501,3.5852.0019.0019.1371.152.0019.0019.1577.1726.0019.0038.1089.1182.0113.0131.1258.1369.1014.1126.3549.3921.5971-.5403.0019-.0019.2197-.1989,1.0008-.908c.0019-.0019.0038-.0019.0038-.0038l.1446-.1294.0019-.0019.5464-.4934.2572-.2345.0075-.0075.0958-.0844-.0939-.1013-.0169-.0188v-.0019l-.2723-.3002-.0019-.0019-.4187-.4634-.0394-.0431-.0394-.0431-.0432-.0469-.9219-1.0187-.1971-.2176-.0038-.0056-.0019-.0019-2.6211-2.891-.1164-.1276-.0019-.0019-.1164-.1294c-.1352-.1482-.2835-.3077-.4469-.4784-.0188-.0206-.0376-.0394-.0563-.06l-.0601-.06c-.1709-.1782-.3567-.3677-.5576-.5685-.1765-.1764-.3661-.364-.5689-.5628-.0019,0-.0038-.0019-.0056-.0038-.1258-.1219-.2554-.2495-.3905-.3808l-.0019-.0019c-.0563-.0525-.1127-.1069-.1709-.1632-.0075-.0075-.015-.015-.0226-.0225-.2028-.1932-.415-.394-.6384-.6041l.0732-.0675.1239.0469h.0019l.1878.0694.1483.0544.0695.0263.1953.0732.0056.0019.0338.0131h.0019l.0094.0038h.0019l.0357.015.0638.0244.1727.0638,1.8607.6923.3586.1332.537.2007.6121.2289.0075.0019,4.0932,1.5234c.0019,0,.0019.0019.0038.0019l.7172.2664.0056.0019.6872.2551.0732.0263c.0012.0013.0025.0019.0038.0019l.2309.0863.1953.0732.0038.0019.3812.1407.2216.0825.4281.1595.1258.0469.1803.0675.1089.0394.1746.0657.4769-.4315.0019-.0019.3361-.3039.0019-.0019,1.5847-1.4352.1634-.1482h.0019l.9313-.8442.0225-.0206.3023-.2739.0188-.0169.0826-.0732.0038-.0038.2047-.1857.0056-.0056.1202-.1088-.0976-.1088h0l-.0002-.0003ZM156.5806,127.8538l-.015-.0094-.2291-.1388-.659-.3977-.0394-.0225-.1558-.0957-.0713-.0431-.5501-.3302-.0432-.0263h-.0019l-.0601-.0375-.0094-.0056-.0075-.0056-.0319-.0206-1.1641-.6998-1.8945,3.1368-.0207.0319s.0019,0,0,.0019l-.7961,1.3189-2.4146-1.4558-.0882-.0525-.1183-.0732.1558-.2589.0282-.045.0488-.0807.03-.0488.0188-.0319.9275-1.5346.0263-.045.2009-.3302v-.0019l.0263-.0413v-.0019l.5088-.8424.0432-.0732.0413-.0675.0282-.0469.4262-.7054-1.1773-.711-.2535-.152-.2554-.1557-.0075-.0038-.3624-.2176-.0019-.0019-.2422-.1445-.0056-.0038-.6008-.364-.0056-.0038-.0263-.015-.0713-.0431-.0038.0056-.0882.1463-.0376.0619-2.3808,3.9416-.9651-.5816-.1164-.0694-.2103-.1276-.8937-.5384.1333-.2214.0488-.0807.0376-.0638.0488-.0788.0676-.1126.0263-.0413v-.0019l.1878-.3114.0225-.0356.5783-.9568.0244-.0413.1859-.3077.0169-.0281.3361-.5534.0376-.0619.0751-.1276.0376-.0619.3981-.6585.0413-.0675.0507-.0825.0544-.0919.3042-.5028-1.0289-.6191-.0357-.0225-.3004-.1801-.0056-.0038-.2666-.1613s-.0019,0-.0038-.0019l-.2366-.1426c-.0038-.0019-.0075-.0038-.0113-.0075l-1.1228-.6754-.0432.0694-.0469.0788-.0263.0431-.0488.0807-.0488.0825-.0413.0694-.0526.0863-4.5119,7.4705-.0432.0694h-.0019l-.0845.1445-.0263.0413.107.0657.0601.0356.077.0469.0094.0056.7079.4277.0357.0206.0526.03.0338.0206.0582.0356.1709.1032.03.0188.03.0169h.0019l.122.075.0038.0038.0507.03.0188.0113.1145.0694.0282.0169,1.0177.6135.5407.3264c0,.0019.0019.0019.0038.0019l1.9095,1.1519c.0075.0038.0131.0075.0207.0113l.9857.5947.0038.0019,1.258.7579c.0038.0019.0075.0038.0113.0075l2.7939,1.6866.0282.0169.077.0469h.0038l.0038.0019.0075.0056.0488.03h.0019l1.3274.803.1615.0976h.0019l.122.0769h.0038l.0131.0075.1258.0769h.0038l.0995.06.092.0563.0263.0169h.0019l.107.0638.1446.0882.1183.0713.2065.1238.0939.0563.1427.0863.0864.0525.4656.2814.0394.0244.0732.0431.2309-.3808.0019-.0038.1765-.2927c.0019,0,.0019-.0019.0019-.0038l2.6399-4.3712c.0038-.0019.0038-.0056.0056-.0075l.1577-.2608.0019-.0038.736-1.2157c0-.0019.0019-.0038.0019-.0056l.0413-.0694.7229-1.1988.0019-.0019.2234-.3696.0113-.0206c.0019-.0019,0-.0038,0-.0038.0019-.0019,0-.0019,0-.0019l.0207-.0263-.0207-.0113h0l-.0005.0005ZM25.7268,87.479v5.7595h-4.8818v-5.7595h-4.2227v15.5357h4.2227v-6.3336h4.8818v6.3336h4.2208v-15.5357h-4.2208ZM42.4919,87.9799l-.0995-.3039-.0864-.2608h-5.6046l-.2704.8349-.0019.0019-.0357.1107v.0019h-.0019l-.1333.4127-.1465.4503-.0338.1051-.1746.5384c0,.0019-.0019.0019-.0019.0038l-.0488.1463-.0019.0038-1.3406,4.1292v.0056l-.0169.0432-.1258.3846v.0019l-.0432.1332v.0019l-.6384,1.9642v.0038l-.0019.0056-.1727.5291c0,.0019-.0019.0038-.0019.0056l-.0676.2045v.0019l-.3436,1.0543-.0582.1782-.5501,1.6941-.0338.1032-.0056.0169-.0319.0957-.4431,1.3639-.0038.0113-.0338.1032-.3098.9549h4.617l.7867-2.9116h5.0507l.2629.998.1634.621v.0019l.2967,1.1256.0113.045v.0019l.0319.1182h4.5945l-4.9512-15.0348h0v-.0004ZM37.9031,96.6605l.0282-.1069c.0056-.0225.0113-.0432.0188-.0657v-.0019c.1089-.4165.2122-.8067.3079-1.1725.0075-.03.015-.0582.0225-.0882v-.0019c.4337-1.6547.7248-2.8085.8731-3.4613.1878-.8292.3136-1.4239.3774-1.786.0695.3902.2178,1.0337.4412,1.9342.0413.167.0826.3302.122.4859.1709.681.3211,1.2513.4469,1.7128l.2629.9999.0056.0206.0563.2157v.0019l.0188.0675v.0038l.0019.0075.3248,1.2344h-3.3083v.0002ZM60.1827,87.479v7.024c0,.5872.0188,1.2926.0582,2.1162v.0019c.0038.0807.0075.1632.0131.2476v.0019c0,.0432.0038.0844.0056.1276.0207.3996.0451.8255.0732,1.2776h-.0638l-5.5577-10.6035-.1014-.1932h-5.4863v15.5357h3.7214v-7.0033c0-.9061-.0676-2.2213-.2009-3.9416h.0958l1.35,2.604c.0038.0056.0056.0113.0094.0169l.3436.6622.0263.0507.0582.1107.0019.0019.0601.1144c.0056.0094.0094.0188.015.0281l.7266,1.407.0113.0206v.0019l.4675.8986.0075.0131.0319.0638.0357.0675.0094.0188.0169.0338c0,.0019.0019.0019.0019.0019l.0038.0075.015.03.1896.3658.0169.0319.0019.0019.0188.0356v.0019l.0488.0938.0282.0544.0319.0619.0056.0094v.0019l.5276,1.015s0,.0019.0019.0019l.0169.0356.0019.0038,1.596,3.0767h5.5089v-15.5357h-3.7439l-.0002-.0002ZM78.448,89.3907c-.6215-.5835-1.3594-1.0318-2.2174-1.347h-.0019c-.1408-.0544-.2854-.1032-.4356-.1463h-.0019c-.0357-.0113-.0713-.0225-.107-.0319-.0507-.015-.1014-.03-.154-.0432-.8524-.2289-1.8063-.3433-2.8615-.3433h-5.3812v15.5357h5.0301c2.5686,0,4.5663-.6923,5.9933-2.073l.0338-.0338c.0957-.0938.1859-.1895.2741-.2889l.0019-.0019c.0432-.0469.0845-.0957.1239-.1445,1.1622-1.3677,1.7405-3.2193,1.7405-5.555,0-2.4089-.6797-4.2512-2.0372-5.5269h.0001ZM72.4246,99.5721h-.9369v-8.7031h1.2242c1.1472,0,2.0034.3433,2.5686,1.03.2685.3283.4732.741.614,1.2382,0,.0038.0019.0056.0019.0094.03.1069.0582.2195.0807.3339.0038.0056.0038.0113.0038.0169.0075.0319.015.0638.0207.0957.0789.4202.1202.8893.1239,1.4089v.1219c0,.0432,0,.0844-.0019.1238,0,.0338-.0019.0657-.0019.0994v.0019c-.0169.6416-.0882,1.2101-.2197,1.7016v.0019c-.0075.0281-.015.0544-.0225.0825-.0038.0169-.0094.0338-.0131.0507-.0094.03-.0188.06-.0282.0882-.0713.2289-.1558.439-.2535.6341l-.0019.0019v.0019c-.0075.0169-.0169.0319-.0263.0488-.0845.1613-.1784.3114-.2835.4465-.0113.0169-.0244.0338-.0376.0507v.0019c-.0013,0-.0025.0006-.0038.0019-.3492.4334-.8186.741-1.4026.9193-.0451.0169-.0901.03-.1352.0413-.03.0075-.0601.015-.092.0244-.0019-.0019-.0019,0-.0019,0-.0413.0094-.0845.0188-.1296.0263h-.0019c-.0976.0225-.1971.0394-.3023.0525h-.0019c-.0244.0038-.0469.0056-.0713.0075h-.0019c-.0432.0075-.0864.0113-.1314.015-.062.0056-.122.0113-.1878.015h-.0094c-.0807.0056-.1615.0075-.246.0075-.03.0019-.062.0019-.092.0019h0l.0002-.0003ZM99.0359,87.706c-.0056-.0019-.0113-.0038-.015-.0038-1.012-.2983-2.0541-.4465-3.1262-.4465-1.3932,0-2.623.2683-3.6857.8086-.0019.0019-.0038.0019-.0056.0019-.1089.0544-.2178.1126-.3229.1726-.0188.0113-.0376.0206-.0545.0319-.0019,0-.0019.0019-.0038.0019-.5426.3208-1.027.7073-1.4439,1.1575-.015.015-.03.03-.0432.045-.0113.0094-.0207.0206-.0282.03-.1784.197-.3455.4071-.4994.6285-.092.1294-.1784.2608-.261.3996v.0019c-.0319.0525-.062.1032-.092.1576v.0019c-.0657.1163-.1296.2326-.1896.3546-.2084.4184-.3793.8611-.5145,1.3245,0,.0019-.0019.0038-.0019.0056-.0713.2345-.1314.4728-.1802.7185v.0019c-.1427.6848-.2122,1.4146-.2122,2.1894,0,.0657,0,.1294.0038.1932.0019.3583.0188.7073.0507,1.0412v.0131c0,.0019,0,.0056.0019.0075v.0094c0,.0188.0019.0394.0056.0582v.0056c.0432.4653.1127.9061.2047,1.3245.0995.4427.2253.8574.3793,1.2457.0319.0844.0657.167.1014.2476l.0019.0019c.1239.2852.261.5516.4187.8048.0019.0019.0019.0038.0038.0056.1089.182.2291.3583.3586.5253h.0019c.0094.0188.0244.0375.0432.0563.0075.0131.0188.0263.03.0413.0038.0038.0075.0094.0113.0131.0826.1051.169.2064.2591.3039.0958.1051.1953.2045.2985.3002.1089.1032.2234.2026.3398.2964.0789.0619.1596.1238.2422.182.0469.0338.0939.0675.1427.0994.0901.0619.1802.1201.2741.1745.0038.0019.0094.0056.0131.0075.0882.0525.1784.1032.2704.152.184.0957.3736.1839.5708.2626.0601.0244.1183.0488.1802.0694.0075.0038.0169.0056.0244.0094.8825.3227,1.8964.4859,3.0417.4859,1.6373,0,3.1056-.287,4.403-.8611v-3.5495c-.3774.1557-.7548.3002-1.1303.4277-.0676.0244-.1333.0469-.2009.0694-.2047.0694-.4112.1351-.6159.1951-.1652.0488-.3323.0919-.4994.1276l-.0019.0019c-.1014.0225-.2047.0413-.3079.06-.1183.0188-.2347.0356-.353.0488h-.0038c-.0225.0038-.0432.0056-.0657.0075h-.0019c-.2403.0263-.4825.0394-.7285.0413h-.0376c-.0638,0-.1277-.0019-.1896-.0038-.1051-.0038-.2065-.0113-.306-.0225-1.9452-.2082-2.9178-1.6941-2.9178-4.4594,0-1.4371.2798-2.5665.8412-3.3844.5595-.818,1.3387-1.2269,2.3395-1.2269.659,0,1.2749.0919,1.8494.2758.5745.1857,1.1491.4109,1.7236.681l1.1885-3.0561.0169-.0432.0244-.0619.0131-.0338.0413-.1032.0019-.0075c-.5502-.2608-1.1059-.4765-1.6767-.6435h.0001ZM116.2084,102.7464l-1.0909-1.6303-.0507-.0769-.0507-.075-.0188-.0281-.997-1.4877-.0638-.0957-.1333-.1989-.0526-.0788-.9257-1.3864-.0789-.1163-.3042-.454-.0225-.0338-.5614-.8386c.2084-.1163.4037-.2383.5858-.3658.0019-.0019.0056-.0038.0075-.0056.2535-.1764.4825-.364.6872-.5609.03-.03.062-.06.0901-.0901.214-.2157.3999-.4427.5576-.6829.0094-.0131.0188-.0281.0282-.0413,0-.0019.0019-.0038.0038-.0056.0056-.0113.0131-.0225.0207-.0338.0019-.0019.0038-.0056.0038-.0075.0113-.015.0207-.0319.03-.0469.0507-.0825.0995-.167.1408-.2551.0019,0,.0019-.0019.0019-.0019.0244-.0469.0488-.0938.0713-.1407.0075-.0169.015-.0319.0225-.0488.0131-.0319.0282-.0619.0394-.0938.2309-.5459.3474-1.1425.3474-1.7954,0-2.028-.9294-3.3863-2.7864-4.0692h-.0019c-.9426-.3471-2.1273-.5215-3.5505-.5215h-5.0939v15.5357h4.2002v-5.6526h1.0646l2.685,4.602.0188.0319c.0019,0,.0019.0038.0019.0038l.015.0263.0901.1557.0169.0281.1277.2195.0019.0019.0882.1538.0019.0019.0432.0713c.0019.0019.0019.0038.0019.0056v.0019h.0019v.0019l.0263.0431.03.0525.0094.0169.0169.0281.0789.1351.0094.0113v.0038l.0038.0094.0056.0075.0225.0394h4.7635l-.1803-.2683h0v-.0003ZM108.1816,94.2028c-.0432.0019-.0864.0019-.1314.0019h-.7867v-3.5495h.8299c1.3631,0,2.0785.4821,2.1517,1.4371v.0019c.0056.045.0075.0901.0075.137v.03c0,.167-.0131.3189-.0376.4634v.0019c-.0056.0319-.0113.0638-.0169.0938-.0019.0075-.0038.0169-.0056.0244-.0056.0338-.0131.0638-.0225.0957-.0469.1764-.1164.3321-.2065.4709-.0188.03-.0394.06-.0601.0882-.0094.0131-.0169.0244-.0282.0356-.0282.0375-.0601.0732-.0939.1069-.338.3489-.8581.5328-1.5603.5591-.0131.0019-.0263.0019-.0394.0019h0v-.0002ZM131.9126,102.9396l-.0019-.0056v-.0038l-.5839-1.771-.0413-.1276-.2535-.7673v-.0019l-.0169-.0525s-.0019,0,0-.0019l-4.1157-12.489-.03-.0976-.0056-.015-.0338-.1032-.0075-.0188-.0225-.0694h-5.6046l-.1446.4427-.445,1.3677c.0019.0019,0,.0038-.0019.0056l-.0638.1989v.0019l-.2967.9099v.0019l-3.1112,9.5623s.0019.0019,0,.0019l-.0582.1782v.0019l-.1127.3471-.0432.1313-.3999,1.2269-.0845.2608-.0244.0769-.2009.6154-.0864.2683h4.617l.7867-2.9116h5.0508l.1539.5835.0169.0619v.0019l.0207.075.0094.0375v.0019l.0075.0263v.0019l.0094.0413.0169.06.1746.6622.0188.0732.0038.0113.015.06.0376.1426.0789.3002.0207.0788v.0019l.0094.0338v.0019l.0019.0075v.0019l.1127.4277.0225.0844.0131.045v.0056l.0075.0225v.0019l.015.0582h4.5945l-.0244-.075h0l-.0002-.0003ZM122.397,96.6605c.6459-2.437,1.0627-4.0711,1.2505-4.8984.1878-.8292.3136-1.4239.3774-1.786.0713.3902.2178,1.0337.4412,1.9342.0338.1332.0657.2608.0976.3865v.0019c.0019.0113.0056.0206.0075.0319.1784.711.3323,1.3039.4638,1.7785l.3267,1.2382c-.0019.0019,0,.0038,0,.0038-.0012.0012-.0012.0025,0,.0038v.0019l.0657.2458.0038.015.2741,1.0431h-3.3083v-.0002ZM133.6175,87.479v15.5357h4.1364v-5.8346h4.6583v-3.3675h-4.6583v-2.9661h5.0526v-3.3675h-9.189ZM144.2203,87.479v3.4313h3.7965v12.1044h4.2002v-12.1044h3.7871v-3.4313h-11.7838,0ZM167.4575,90.8465v-3.3675h-9.2322v15.5357h9.2322v-3.4219h-5.0301v-2.9323h4.6583v-3.3694h-4.6583v-2.4445h5.0301ZM182.591,91.0829c-.0113-.0225-.0207-.0432-.0338-.0638-.0282-.0582-.0582-.1163-.0901-.1745-.2047-.3696-.4431-.7129-.7154-1.0262-.1296-.1482-.2666-.2908-.4112-.4277-.092-.0863-.1878-.1707-.2854-.2495-.0338-.03-.0676-.0563-.1014-.0825-.015-.0131-.0319-.0263-.0488-.0394-.0188-.0131-.0376-.0281-.0563-.0413-.0019,0-.0019-.0019-.0038-.0019-.4919-.3733-1.0439-.6773-1.6579-.908-.0019,0-.0019-.0019-.0038-.0019-1.0327-.3921-2.24-.5872-3.6219-.5872h-5.3812v15.5357h5.0301c2.4184,0,4.3335-.6135,5.7398-1.8404.0976-.0844.1934-.1726.2854-.2645,1.427-1.4014,2.1423-3.3994,2.1423-5.9921,0-1.4971-.2629-2.7747-.7867-3.8347h0ZM179.0066,95.5892v.0038c-.0113.1951-.0263.3827-.0469.5628v.0019c-.0507.4371-.1333.833-.2516,1.1819v.0019c-.0638.2007-.1389.3846-.2272.5572-.1014.2082-.2216.3958-.3567.5628-.3924.4878-.9332.8142-1.6204.9793-.3154.0788-.6609.1219-1.0402.1294-.0225,0-.0451.0019-.0676,0-.0263.0019-.0526.0019-.0789.0019h-.9369v-8.7031h1.2242c.7435,0,1.3669.1445,1.8663.4334.0376.0225.0732.0469.1089.0694.2234.1445.4206.3189.5914.5272.2272.2758.4093.6116.5426,1.0074v.0019l.0019.0019c.0976.2833.1709.5985.2216.9437.0038.0225.0075.0469.0094.0694.0131.0901.0244.1857.0319.2814.0056.0525.0094.1051.0131.1595.0019.0075.0019.015.0019.0244.0056.0732.0113.1463.0131.2214.0075.1482.0113.3002.0113.4559,0,.1801-.0038.3546-.0113.5234h0v-.0002Z"></path><rect class="cls-1" width="200" height="200"></rect></g></g></svg> 